<svg width="60" height="60" viewBox="0 0 60 60" fill="none" xmlns="http://www.w3.org/2000/svg">
<circle cx="30" cy="30" r="29" fill="white" stroke="#FE9519" stroke-width="2"/>
<path d="M18.0017 29C17.4494 29 17.0017 29.4477 17.0017 30C17.0017 30.5523 17.4494 31 18.0017 31L18.0017 29ZM42.0421 30.7071C42.4327 30.3166 42.4327 29.6834 42.0421 29.2929L35.6782 22.9289C35.2877 22.5384 34.6545 22.5384 34.264 22.9289C33.8734 23.3195 33.8734 23.9526 34.264 24.3431L39.9208 30L34.264 35.6569C33.8734 36.0474 33.8734 36.6805 34.264 37.0711C34.6545 37.4616 35.2877 37.4616 35.6782 37.0711L42.0421 30.7071ZM18.0017 31L41.335 31L41.335 29L18.0017 29L18.0017 31Z" fill="#FE9519"/>
</svg>
