<svg width="60" height="60" viewBox="0 0 60 60" fill="none" xmlns="http://www.w3.org/2000/svg">
<circle r="29" transform="matrix(-1 0 0 1 30 30)" fill="white" stroke="#FE9519" stroke-width="2"/>
<path d="M41.9983 29C42.5506 29 42.9983 29.4477 42.9983 30C42.9983 30.5523 42.5506 31 41.9983 31L41.9983 29ZM17.9579 30.7071C17.5673 30.3166 17.5673 29.6834 17.9579 29.2929L24.3218 22.9289C24.7123 22.5384 25.3455 22.5384 25.736 22.9289C26.1266 23.3195 26.1266 23.9526 25.736 24.3431L20.0792 30L25.736 35.6569C26.1266 36.0474 26.1266 36.6805 25.736 37.0711C25.3455 37.4616 24.7123 37.4616 24.3218 37.0711L17.9579 30.7071ZM41.9983 31L18.665 31L18.665 29L41.9983 29L41.9983 31Z" fill="#FE9519"/>
</svg>
