<svg width="68" height="68" viewBox="0 0 68 68" fill="none" xmlns="http://www.w3.org/2000/svg">
<circle cx="34" cy="34" r="33" stroke="#FE9519" stroke-width="2"/>
<path d="M38.6351 42.0837L34.8673 45.1696C34.6509 45.3462 34.3501 45.3462 34.1337 45.1696L30.3622 42.0806C30.1346 41.8945 30.1122 41.5383 30.3165 41.3245C30.4195 41.2176 30.5135 41.1011 30.5973 40.9765C30.7519 40.7467 31.037 40.6613 31.2868 40.7601C33.3538 41.5771 35.6549 41.5766 37.7212 40.7574C37.9713 40.6582 38.2486 40.7548 38.4058 40.9832C38.4927 41.1093 38.5816 41.2155 38.6801 41.3198C38.8866 41.5367 38.8649 41.8961 38.6351 42.0837ZM40.8128 42.1017C40.6676 42.0928 40.524 42.1394 40.409 42.2336L34.8671 46.7717C34.6512 46.9484 34.3498 46.9484 34.134 46.7717L28.5921 42.2336C28.4771 42.1394 28.3335 42.0928 28.1883 42.1017C24.9445 42.3013 22.3752 45.1418 22.3752 48.6253V52.3667C22.3752 52.7164 22.6433 53 22.974 53H46.0271C46.3578 53 46.6259 52.7164 46.6259 52.3667V48.6253C46.6258 45.1427 44.0577 42.3014 40.8128 42.1017ZM45.572 31.1445C44.7921 29.9071 44.3804 28.4671 44.3804 26.9804V23.5501C44.3804 18.8468 40.7705 15.0175 36.3275 15.0009C36.3112 14.9996 32.7206 15.0001 32.7042 15.0001C28.247 15.0001 24.6206 18.8357 24.6206 23.5501V26.9804C24.6206 28.4671 24.2089 29.9071 23.429 31.1445C21.3371 34.467 21.5768 38.8155 23.9191 41.8366C24.1093 42.0819 24.4421 42.1373 24.6975 41.9709C25.8531 41.2181 27.1782 40.8218 28.5553 40.8218C29.544 40.8218 29.6626 39.9375 29.2087 39.599C26.8428 37.8349 25.2942 34.9229 25.2942 31.6346V27.1918C25.2942 26.0466 26.2484 25.1571 27.3271 25.3084C30.9079 25.81 34.5591 24.8421 37.5243 22.4379C38.7022 21.4834 40.4118 22.3714 40.4135 23.9428C40.4157 23.9919 40.4576 24.8445 40.9651 25.1675C41.2301 25.3369 41.5309 25.3274 41.6866 25.3069C42.7768 25.1617 43.7068 26.0678 43.7068 27.1918V31.6346C43.7068 34.9228 42.1582 37.8348 39.7925 39.5989C39.3383 39.9376 39.4567 40.8219 40.4457 40.8219C41.8486 40.8219 43.1763 41.2348 44.3029 41.9696C44.5588 42.1365 44.892 42.0815 45.0827 41.8357C47.4591 38.7723 47.6313 34.4154 45.572 31.1445ZM41.8356 26.5631C41.5265 26.6043 40.9224 26.6186 40.3476 26.2536C39.2219 25.5364 39.2159 23.9657 39.2159 23.9499C39.2191 23.4238 38.6471 23.1238 38.2526 23.4432C35.0229 26.062 31.0511 27.1077 27.1692 26.5639C26.8103 26.514 26.4918 26.8084 26.4918 27.1917V31.6346C26.4918 36.3054 30.0845 40.1054 34.5005 40.1054C38.9165 40.1054 42.5092 36.3054 42.5092 31.6346V27.1917C42.5092 26.8162 42.1986 26.516 41.8356 26.5631Z" fill="#FE9519"/>
</svg>
