<svg width="258" height="232" xmlns="http://www.w3.org/2000/svg">
 <!-- Created with SVG Editor - http://github.com/mzalive/SVG Editor/ -->

 <g>
  <title>background</title>
  <rect fill="#fff" id="canvas_background" height="234" width="260" y="-1" x="-1"/>
  <g display="none" overflow="visible" y="0" x="0" height="100%" width="100%" id="canvasGrid">
   <rect fill="url(#gridpattern)" stroke-width="0" y="0" x="0" height="100%" width="100%"/>
  </g>
 </g>
 <g>
  <title>Layer 1</title>
  <g id="svg_5">
   <path stroke="null" id="svg_4" fill="#FE9519" d="m274.24117,61.872626l3.023084,-0.57459l-1.60911,-8.392698l-4.115112,7.49787l2.701139,1.469419zm19.082179,99.519991l-3.023084,0.57459l1.502924,7.839253l4.152662,-6.826135l-2.632502,-1.587708zm99.309324,-159.058199c-0.405355,-1.643635 -2.07233,-2.648908 -3.722992,-2.245285l-26.901815,6.576993c-1.650662,0.403592 -2.660511,2.063224 -2.255155,3.706859c0.405355,1.643635 2.07233,2.648908 3.723299,2.245285l23.912588,-5.846236l5.871653,23.808547c0.405355,1.643788 2.07233,2.648939 3.722992,2.245346c1.650969,-0.403592 2.660511,-2.063316 2.255155,-3.706798l-6.605725,-26.784712zm-206.558753,226.573041l90.868081,-165.565413l-5.40197,-2.938839l-90.867958,165.565107l5.401847,2.939145zm85.143858,-166.460242l19.082487,99.519991l6.046476,-1.149181l-19.082487,-99.519991l-6.046476,1.149181zm24.738073,100.533109l96.320404,-158.327473l-5.265312,-3.175325l-96.320097,158.327381l5.265005,3.175417z"/>
   <path id="svg_6" fill="#FE9519" d="m241.5691,62.14292l3.02309,-0.5771l-1.60911,-8.42937l-4.11512,7.53063l2.70114,1.47584zm19.08218,99.95475l-3.02308,0.5771l1.50292,7.8735l4.15266,-6.85596l-2.6325,-1.59464zm99.30933,-159.75306c-0.40536,-1.65082 -2.07233,-2.66048 -3.723,-2.25509l-26.90181,6.60572c-1.65066,0.40536 -2.66051,2.07224 -2.25516,3.72305c0.40536,1.65082 2.07233,2.66048 3.7233,2.2551l23.91259,-5.87178l5.87165,23.91256c0.40536,1.65097 2.07233,2.66051 3.72299,2.25515c1.65097,-0.40535 2.66052,-2.07233 2.25516,-3.72299l-6.60572,-26.90172zm-206.55876,227.56285l90.86808,-166.28871l-5.40197,-2.95167l-90.86795,166.28839l5.40184,2.95199zm85.14386,-167.18744l19.08249,99.95475l6.04647,-1.1542l-19.08248,-99.95475l-6.04648,1.1542zm24.73807,100.97229l96.32041,-159.01914l-5.26531,-3.18919l-96.3201,159.01904l5.265,3.18929z"/>
  </g>
  <!-- Created with SVG Editor - http://github.com/mzalive/SVG Editor/ -->
  <g stroke="null" id="svg_23">
   <g stroke="null" transform="matrix(0.9999708366870599,0,0,0.990183217383349,-5189.346912466421,-2971.866601051085) " id="svg_20">
    <title stroke="null" transform="translate(-145.0042266845703,-4.547473508864641e-13) translate(5190.50439453125,0) translate(0,3002.985107421875) ">background</title>
    <rect stroke="null" x="5044.500168" y="3001.985107" width="403" height="234" id="svg_18" fill="#fff"/>
    <g stroke="null" id="svg_17" display="none">
     <rect stroke="null" id="svg_21" width="401" height="232" x="5045.500168" y="3002.985107" stroke-width="0" fill="url(#gridpattern)"/>
    </g>
   </g>
   <g stroke="null" transform="matrix(0.9999708366870599,0,0,0.990183217383349,-5189.346912466421,-2971.866601051085) " id="svg_22">
    <title stroke="null" transform="translate(-145.0042266845703,-4.547473508864641e-13) translate(5190.50439453125,0) translate(0,3002.985107421875) ">Layer 1</title>
    <g stroke="null" id="svg_14">
     <path stroke="null" d="m5319.741338,3064.857733l3.023084,-0.57459l-1.60911,-8.392698l-4.115112,7.49787l2.701139,1.469419l-0.000001,-0.000001zm19.082179,99.519991l-3.023084,0.57459l1.502924,7.839253l4.152662,-6.826135l-2.632502,-1.587708zm99.309324,-159.058199c-0.405355,-1.643635 -2.07233,-2.648908 -3.722992,-2.245285l-26.901815,6.576993c-1.650662,0.403592 -2.660511,2.063224 -2.255155,3.706859c0.405355,1.643635 2.07233,2.648908 3.723299,2.245285l23.912588,-5.846236l5.871653,23.808547c0.405355,1.643788 2.07233,2.648939 3.722992,2.245346c1.650969,-0.403592 2.660511,-2.063316 2.255155,-3.706798l-6.605725,-26.784712l0,0.000001zm-206.558753,226.573041l90.868081,-165.565413l-5.40197,-2.938839l-90.867958,165.565107l5.401847,2.939145zm85.143858,-166.460242l19.082487,99.519991l6.046476,-1.149181l-19.082487,-99.519991l-6.046476,1.149181zm24.738073,100.533109l96.320404,-158.327473l-5.265312,-3.175325l-96.320097,158.327381l5.265005,3.175417z" fill="#FE9519" id="svg_16"/>
     <path stroke="null" d="m5287.069268,3065.128027l3.02309,-0.5771l-1.60911,-8.42937l-4.11512,7.53063l2.70114,1.47584zm19.08218,99.95475l-3.02308,0.5771l1.50292,7.8735l4.15266,-6.85596l-2.6325,-1.59464zm99.30933,-159.75306c-0.40536,-1.65082 -2.07233,-2.66048 -3.723,-2.25509l-26.90181,6.60572c-1.65066,0.40536 -2.66051,2.07224 -2.25516,3.72305c0.40536,1.65082 2.07233,2.66048 3.7233,2.2551l23.91259,-5.87178l5.87165,23.91256c0.40536,1.65097 2.07233,2.66051 3.72299,2.25515c1.65097,-0.40535 2.66052,-2.07233 2.25516,-3.72299l-6.60572,-26.90172zm-206.55876,227.56285l90.86808,-166.28871l-5.40197,-2.95167l-90.86795,166.28839l5.40184,2.95199zm85.14386,-167.18744l19.08249,99.95475l6.04647,-1.1542l-19.08248,-99.95475l-6.04648,1.1542zm24.73807,100.97229l96.32041,-159.01914l-5.26531,-3.18919l-96.3201,159.01904l5.265,3.18929z" fill="#FE9519" id="svg_15"/>
    </g>
   </g>
  </g>
 </g>
</svg>