<svg width="151" height="188" viewBox="0 0 151 188" fill="none" xmlns="http://www.w3.org/2000/svg">
<rect x="0.782227" width="150" height="150" rx="75" fill="#23A620"/>
<path d="M53.1683 71.5001L73.0461 90.3533L102.668 54.9999" stroke="white" stroke-width="12" stroke-linecap="round"/>
<circle cx="75.7822" cy="75" r="54" stroke="white" stroke-width="12"/>
<path d="M61.7662 181.706C61.7662 182.39 61.5862 182.978 61.2262 183.47C60.8662 183.962 60.3862 184.34 59.7862 184.604C59.1982 184.868 58.5442 185 57.8242 185H51.7222V172.22H58.3102C58.9102 172.22 59.4262 172.382 59.8582 172.706C60.2902 173.018 60.6262 173.426 60.8662 173.93C61.1062 174.434 61.2262 174.95 61.2262 175.478C61.2262 176.102 61.0642 176.69 60.7402 177.242C60.4282 177.782 59.9782 178.184 59.3902 178.448C60.1102 178.664 60.6862 179.06 61.1182 179.636C61.5502 180.2 61.7662 180.89 61.7662 181.706ZM53.7382 173.966V177.728H57.4462C57.9502 177.728 58.3702 177.554 58.7062 177.206C59.0422 176.846 59.2102 176.396 59.2102 175.856C59.2102 175.304 59.0542 174.854 58.7422 174.506C58.4302 174.146 58.0342 173.966 57.5542 173.966H53.7382ZM59.6962 181.328C59.6962 180.8 59.5282 180.338 59.1922 179.942C58.8682 179.546 58.4542 179.348 57.9502 179.348H53.7382V183.254H57.8242C58.3522 183.254 58.7962 183.068 59.1562 182.696C59.5162 182.312 59.6962 181.856 59.6962 181.328ZM64.4326 172.22L67.9606 177.242L71.4886 172.22H73.7206L69.1126 178.7L73.5766 185H71.3446L67.9606 180.158L64.5766 185H62.3266L66.7906 178.7L62.1826 172.22H64.4326ZM80.4639 185.09C79.5519 185.09 78.7179 184.91 77.9619 184.55C77.2179 184.19 76.5759 183.704 76.0359 183.092C75.4959 182.468 75.0759 181.772 74.7759 181.004C74.4879 180.224 74.3439 179.426 74.3439 178.61C74.3439 177.758 74.4999 176.948 74.8119 176.18C75.1239 175.4 75.5559 174.71 76.1079 174.11C76.6599 173.498 77.3079 173.018 78.0519 172.67C78.8079 172.31 79.6239 172.13 80.4999 172.13C81.4119 172.13 82.2399 172.316 82.9839 172.688C83.7399 173.06 84.3819 173.558 84.9099 174.182C85.4499 174.806 85.8639 175.502 86.1519 176.27C86.4519 177.038 86.6019 177.824 86.6019 178.628C86.6019 179.48 86.4459 180.296 86.1339 181.076C85.8339 181.844 85.4079 182.534 84.8559 183.146C84.3039 183.746 83.6499 184.22 82.8939 184.568C82.1499 184.916 81.3399 185.09 80.4639 185.09ZM76.3959 178.61C76.3959 179.414 76.5639 180.176 76.8999 180.896C77.2359 181.604 77.7039 182.18 78.3039 182.624C78.9159 183.056 79.6419 183.272 80.4819 183.272C81.1179 183.272 81.6879 183.14 82.1919 182.876C82.6959 182.612 83.1219 182.258 83.4699 181.814C83.8179 181.358 84.0819 180.854 84.2619 180.302C84.4419 179.75 84.5319 179.186 84.5319 178.61C84.5319 177.806 84.3639 177.05 84.0279 176.342C83.7039 175.634 83.2359 175.064 82.6239 174.632C82.0119 174.188 81.2979 173.966 80.4819 173.966C79.8339 173.966 79.2579 174.098 78.7539 174.362C78.2499 174.626 77.8239 174.98 77.4759 175.424C77.1279 175.868 76.8579 176.366 76.6659 176.918C76.4859 177.47 76.3959 178.034 76.3959 178.61ZM87.843 187.448V183.218H88.455C88.899 183.206 89.265 182.966 89.553 182.498C89.853 182.03 90.087 181.256 90.255 180.176C90.435 179.096 90.549 177.644 90.597 175.82L90.687 172.22H98.913V183.218H100.533V187.448H98.751V185H89.625V187.448H87.843ZM91.011 183.218H96.879V174.002H92.559L92.505 176.09C92.445 178.166 92.301 179.768 92.073 180.896C91.857 182.012 91.503 182.786 91.011 183.218Z" fill="#727272"/>
</svg>
