<svg width="114" height="112" viewBox="0 0 114 112" fill="none" xmlns="http://www.w3.org/2000/svg">
<g filter="url(#filter0_b_23_169)">
<ellipse cx="57" cy="56" rx="57" ry="56" fill="#1982FE" fill-opacity="0.5"/>
</g>
<ellipse cx="57" cy="56.5" rx="49" ry="48.5" fill="#1982FE"/>
<path d="M44.9222 40.1087L48.3462 44.8127L51.7702 40.1087H53.3862L49.1462 45.8687L53.2582 51.4688H51.6422L48.3462 46.9247L45.0502 51.4688H43.4182L47.5302 45.8687L43.2902 40.1087H44.9222ZM54.5497 51.4688V43.1327H55.9577V49.5807L60.6297 43.1167H61.9097V51.4688H60.5017V45.1487L55.8937 51.4688H54.5497ZM66.1914 51.4688V44.3647H63.3114V43.1167H70.4794V44.3647H67.5994V51.4688H66.1914ZM28.1591 69.4688V61.1167H35.0871V69.4688H33.6791V62.3647H29.5671V69.4688H28.1591ZM41.8586 69.6288C41.1759 69.6288 40.5679 69.4581 40.0346 69.1167C39.5012 68.7754 39.0799 68.3434 38.7706 67.8207V72.8768H37.3626V61.1167H38.6106V62.6847C38.9412 62.1727 39.3732 61.7621 39.9066 61.4527C40.4399 61.1327 41.0212 60.9727 41.6506 60.9727C42.2266 60.9727 42.7546 61.0901 43.2346 61.3247C43.7146 61.5594 44.1306 61.8794 44.4826 62.2847C44.8346 62.6901 45.1066 63.1541 45.2986 63.6767C45.5012 64.1887 45.6026 64.7274 45.6026 65.2927C45.6026 66.0821 45.4426 66.8074 45.1226 67.4688C44.8132 68.1301 44.3759 68.6581 43.8106 69.0527C43.2452 69.4368 42.5946 69.6288 41.8586 69.6288ZM41.4266 68.4128C41.9812 68.4128 42.4612 68.2634 42.8666 67.9647C43.2719 67.6661 43.5866 67.2767 43.8106 66.7967C44.0452 66.3167 44.1626 65.8154 44.1626 65.2927C44.1626 64.7274 44.0346 64.2101 43.7786 63.7407C43.5332 63.2714 43.1919 62.8981 42.7546 62.6207C42.3279 62.3327 41.8426 62.1887 41.2986 62.1887C40.9679 62.1887 40.6159 62.2741 40.2426 62.4447C39.8799 62.6154 39.5599 62.8447 39.2826 63.1327C39.0159 63.4101 38.8452 63.7194 38.7706 64.0607V66.4447C39.0052 66.9994 39.3626 67.4687 39.8426 67.8527C40.3332 68.2261 40.8612 68.4128 41.4266 68.4128ZM50.9793 69.6288C50.1473 69.6288 49.4113 69.4314 48.7713 69.0367C48.142 68.6314 47.6513 68.1034 47.2993 67.4527C46.9473 66.7914 46.7713 66.0767 46.7713 65.3087C46.7713 64.5301 46.9473 63.8154 47.2993 63.1647C47.662 62.5034 48.158 61.9754 48.7873 61.5807C49.4273 61.1754 50.158 60.9727 50.9793 60.9727C51.8113 60.9727 52.542 61.1754 53.1713 61.5807C53.8113 61.9754 54.3073 62.5034 54.6593 63.1647C55.022 63.8154 55.2033 64.5301 55.2033 65.3087C55.2033 66.0767 55.022 66.7914 54.6593 67.4527C54.3073 68.1034 53.8166 68.6314 53.1873 69.0367C52.558 69.4314 51.822 69.6288 50.9793 69.6288ZM48.2113 65.3247C48.2113 65.9007 48.334 66.4234 48.5793 66.8927C48.8353 67.3621 49.1713 67.7354 49.5873 68.0127C50.0033 68.2794 50.4673 68.4128 50.9793 68.4128C51.4913 68.4128 51.9553 68.2741 52.3713 67.9967C52.798 67.7194 53.134 67.3461 53.3793 66.8767C53.6353 66.3967 53.7633 65.8687 53.7633 65.2927C53.7633 64.7167 53.6353 64.1941 53.3793 63.7247C53.134 63.2554 52.798 62.8821 52.3713 62.6047C51.9553 62.3274 51.4913 62.1887 50.9793 62.1887C50.4673 62.1887 50.0033 62.3327 49.5873 62.6207C49.1713 62.8981 48.8353 63.2714 48.5793 63.7407C48.334 64.2101 48.2113 64.7381 48.2113 65.3247ZM55.9814 71.4368V68.2207H56.1574C56.4668 68.2207 56.7441 68.0927 56.9894 67.8367C57.2454 67.5701 57.4534 67.1007 57.6134 66.4287C57.7734 65.7461 57.8694 64.7807 57.9014 63.5327L57.9814 61.1167H63.6614V68.2207H64.7974V71.4368H63.5494V69.4688H57.2294V71.4368H55.9814ZM58.1254 68.2207H62.2534V62.3647H59.2294L59.1814 63.6607C59.1388 65.0261 59.0268 66.0607 58.8454 66.7647C58.6748 67.4687 58.4348 67.9541 58.1254 68.2207ZM65.7066 67.0527C65.7066 66.5194 65.8559 66.0607 66.1546 65.6767C66.4639 65.2821 66.8852 64.9781 67.4186 64.7648C67.9519 64.5514 68.5706 64.4447 69.2746 64.4447C69.6479 64.4447 70.0426 64.4767 70.4586 64.5407C70.8746 64.5941 71.2426 64.6794 71.5626 64.7967V64.1887C71.5626 63.5487 71.3706 63.0474 70.9866 62.6847C70.6026 62.3114 70.0586 62.1247 69.3546 62.1247C68.8959 62.1247 68.4532 62.2101 68.0266 62.3807C67.6106 62.5407 67.1679 62.7754 66.6986 63.0847L66.1866 62.0927C66.7306 61.7194 67.2746 61.4421 67.8186 61.2607C68.3626 61.0687 68.9279 60.9727 69.5146 60.9727C70.5812 60.9727 71.4239 61.2714 72.0426 61.8687C72.6612 62.4554 72.9706 63.2767 72.9706 64.3327V67.8687C72.9706 68.1994 73.1199 68.3701 73.4186 68.3807V69.4688C73.2799 69.4901 73.1572 69.5061 73.0506 69.5168C72.9546 69.5274 72.8746 69.5328 72.8106 69.5328C72.4799 69.5328 72.2292 69.4421 72.0586 69.2607C71.8986 69.0794 71.8079 68.8874 71.7866 68.6847L71.7546 68.1567C71.3919 68.6261 70.9172 68.9887 70.3306 69.2447C69.7439 69.5008 69.1626 69.6288 68.5866 69.6288C68.0319 69.6288 67.5359 69.5168 67.0986 69.2927C66.6612 69.0581 66.3199 68.7487 66.0746 68.3647C65.8292 67.9701 65.7066 67.5327 65.7066 67.0527ZM71.1466 67.6447C71.2746 67.4954 71.3759 67.3461 71.4506 67.1967C71.5252 67.0367 71.5626 66.9034 71.5626 66.7967V65.7567C70.8799 65.4901 70.1759 65.3568 69.4506 65.3568C68.7359 65.3568 68.1546 65.5007 67.7066 65.7887C67.2692 66.0661 67.0506 66.4501 67.0506 66.9407C67.0506 67.2074 67.1199 67.4687 67.2586 67.7247C67.4079 67.9701 67.6212 68.1727 67.8986 68.3327C68.1866 68.4927 68.5386 68.5727 68.9546 68.5727C69.3919 68.5727 69.8079 68.4874 70.2026 68.3167C70.5972 68.1354 70.9119 67.9114 71.1466 67.6447ZM74.6459 69.4688L77.7179 65.1647L74.9179 61.1167H76.5019L78.9019 64.5887H79.7979V61.1167H81.2379V64.5887H82.1659L84.5179 61.1167H86.1179L83.3179 65.1647L86.4059 69.4688H84.7899L82.1659 65.8207H81.2379V69.4688H79.7979V65.8207H78.9019L76.2619 69.4688H74.6459Z" fill="white"/>
<defs>
<filter id="filter0_b_23_169" x="-10" y="-10" width="134" height="132" filterUnits="userSpaceOnUse" color-interpolation-filters="sRGB">
<feFlood flood-opacity="0" result="BackgroundImageFix"/>
<feGaussianBlur in="BackgroundImage" stdDeviation="5"/>
<feComposite in2="SourceAlpha" operator="in" result="effect1_backgroundBlur_23_169"/>
<feBlend mode="normal" in="SourceGraphic" in2="effect1_backgroundBlur_23_169" result="shape"/>
</filter>
</defs>
</svg>
