<svg width="30" height="30" viewBox="0 0 30 30" fill="none" xmlns="http://www.w3.org/2000/svg">
<path d="M1.1748 26.8447L2.2308 23.4217L11.0988 14.553L10.6548 14.1097C10.3406 13.7962 10.1688 13.3792 10.1688 12.936C10.1688 12.4927 10.3406 12.0757 10.6548 11.7615L11.3756 11.04L11.3568 10.8615C11.3208 10.5285 11.3036 10.2172 11.3036 9.91125C11.3036 5.067 15.2448 1.12575 20.0891 1.12575L20.3388 1.1295C24.9168 1.2555 28.7448 5.0835 28.8716 9.6615C28.9383 12.0577 28.0563 14.3212 26.3876 16.0365C24.7188 17.7525 22.4823 18.6967 20.0898 18.6967C19.7838 18.6967 19.4733 18.6795 19.1388 18.6435L18.9603 18.624L18.2396 19.3447C17.9253 19.6582 17.5083 19.8307 17.0651 19.8307C16.6218 19.8307 16.2048 19.6582 15.8913 19.3447L15.4473 18.9007L13.7231 20.625H10.8753V23.4727L9.97305 24.375H7.1253V27.2227L6.57181 27.7762L3.15705 28.8247L1.1748 26.8447ZM20.2286 4.125C18.7196 4.125 17.3021 4.71225 16.2356 5.7795L15.9701 6.045L23.9561 14.031L24.2216 13.7655C25.2881 12.699 25.8753 11.2807 25.8753 9.7725C25.8753 8.26425 25.2881 6.846 24.2216 5.7795C23.1551 4.71225 21.7368 4.125 20.2286 4.125Z" fill="#F5CE85"/>
<path d="M20.0895 1.5C20.169 1.5 20.2485 1.50075 20.328 1.503C24.711 1.6245 28.3755 5.28825 28.4963 9.67125C28.56 11.9648 27.7155 14.1322 26.1188 15.774C24.5212 17.4165 22.38 18.321 20.0895 18.321C19.797 18.321 19.4993 18.3045 19.179 18.27L18.822 18.2318L18.5685 18.4852L17.9745 19.0793C17.7315 19.3222 17.409 19.4557 17.0655 19.4557C16.722 19.4557 16.3995 19.3222 16.1565 19.0793L15.978 18.9007L15.4478 18.3705L14.9175 18.9007L13.5675 20.25H11.25H10.5V21V23.3175L9.8175 24H7.5H6.75V24.75V27.0675L6.372 27.4455L3.26175 28.401L1.59975 26.7397L2.56125 23.6213L11.0985 15.084L11.6287 14.5538L11.0985 14.0235L10.92 13.845C10.677 13.602 10.5435 13.2795 10.5435 12.936C10.5435 12.5925 10.677 12.27 10.92 12.027L11.514 11.433L11.7675 11.1795L11.7292 10.8225C11.6947 10.5023 11.6783 10.2045 11.6783 9.912C11.6783 5.27325 15.4515 1.5 20.0895 1.5ZM23.9557 14.5605L24.486 14.0303C25.6237 12.8933 26.25 11.3805 26.25 9.77175C26.25 8.163 25.6237 6.651 24.486 5.51325C23.349 4.37625 21.8363 3.75 20.2283 3.75C18.6203 3.75 17.1075 4.37625 15.9697 5.514L15.4395 6.04425L15.9697 6.5745L23.4255 14.0303L23.9557 14.5605ZM20.0895 0.75C15.03 0.75 10.9283 4.851 10.9283 9.9105C10.9283 10.2457 10.9485 10.5758 10.9838 10.9012L10.3897 11.4952C9.59475 12.2902 9.59475 13.5795 10.3897 14.3745L10.5682 14.553L1.89975 23.2222L0.75 26.9497L3.051 29.25L6.771 28.107L7.5 27.378V24.75H10.128L11.25 23.628V21H13.878L15.4462 19.4318L15.6248 19.6102C16.0223 20.0077 16.5435 20.2065 17.064 20.2065C17.5853 20.2065 18.1057 20.0077 18.5033 19.6102L19.0972 19.0163C19.4227 19.0515 19.7528 19.0718 20.088 19.0718C25.2337 19.0718 29.3888 14.829 29.2448 9.651C29.112 4.8705 25.1272 0.88575 20.3475 0.75375C20.262 0.7515 20.175 0.75 20.0895 0.75ZM23.9557 13.5L16.5 6.04425C17.5298 5.0145 18.879 4.5 20.2283 4.5C21.5775 4.5 22.9268 5.0145 23.9565 6.04425C26.0145 8.103 26.0145 11.4412 23.9557 13.5Z" fill="#967A44"/>
<path d="M3.94629 24.5046L12.3121 16.1385L12.8424 16.6688L4.47663 25.0349L3.94629 24.5046Z" fill="#DBB065"/>
<path d="M10.9492 14.9403L11.4795 14.4099L15.4709 18.4011L14.9406 18.9315L10.9492 14.9403Z" fill="#967A44"/>
</svg>
