<svg width="30" height="30" viewBox="0 0 30 30" fill="none" xmlns="http://www.w3.org/2000/svg">
<path d="M14.25 28.875C13.299 28.875 12.4155 28.4805 11.763 27.7627L11.7 27.6937L11.6115 27.6622C8.4795 26.547 6.375 23.568 6.375 20.25V9.28575C6.375 7.3245 7.97025 5.72925 9.9315 5.72925H18.5685C20.5297 5.72925 22.125 7.3245 22.125 9.28575V20.25C22.125 23.568 20.0205 26.547 16.8885 27.6622L16.8 27.6937L16.737 27.7627C16.0845 28.4805 15.201 28.875 14.25 28.875Z" fill="#FFEEA3"/>
<path d="M18.5685 6.10425C20.3227 6.10425 21.75 7.5315 21.75 9.28575V20.25C21.75 23.4097 19.746 26.2462 16.7625 27.309L16.5855 27.372L16.4595 27.5107C15.879 28.149 15.0938 28.5 14.25 28.5C13.4062 28.5 12.621 28.1482 12.0405 27.51L11.9145 27.3712L11.7375 27.3082C8.754 26.2462 6.75 23.4097 6.75 20.25V9.28575C6.75 7.5315 8.17725 6.10425 9.9315 6.10425H18.5685ZM18.5685 5.35425H9.9315C7.76025 5.35425 6 7.1145 6 9.28575V20.25C6 23.835 8.29125 26.8777 11.4855 28.0155C12.1718 28.7685 13.1505 29.25 14.25 29.25C15.3495 29.25 16.3283 28.7685 17.0145 28.0147C20.2088 26.8777 22.5 23.835 22.5 20.25V9.28575C22.5 7.1145 20.7397 5.35425 18.5685 5.35425Z" fill="#BA9B48"/>
<path d="M18.5628 18.054C18.4292 18.054 18.2968 18.0803 18.1734 18.1315C18.0499 18.1826 17.9377 18.2576 17.8432 18.3521C17.7487 18.4466 17.6737 18.5588 17.6226 18.6823C17.5714 18.8058 17.5451 18.9381 17.5451 19.0718C17.5451 19.2054 17.5714 19.3377 17.6226 19.4612C17.6737 19.5847 17.7487 19.6969 17.8432 19.7914C17.9377 19.8859 18.0499 19.9609 18.1734 20.012C18.2968 20.0632 18.4292 20.0895 18.5628 20.0895C18.6965 20.0895 18.8288 20.0632 18.9523 20.012C19.0758 19.9609 19.188 19.8859 19.2825 19.7914C19.377 19.6969 19.452 19.5847 19.5031 19.4612C19.5543 19.3377 19.5806 19.2054 19.5806 19.0718C19.5806 18.9381 19.5543 18.8058 19.5031 18.6823C19.452 18.5588 19.377 18.4466 19.2825 18.3521C19.188 18.2576 19.0758 18.1826 18.9523 18.1315C18.8288 18.0803 18.6965 18.054 18.5628 18.054ZM10.4201 18.054C10.2864 18.054 10.1541 18.0803 10.0306 18.1315C9.90714 18.1826 9.79494 18.2576 9.70044 18.3521C9.60593 18.4466 9.53096 18.5588 9.47982 18.6823C9.42867 18.8058 9.40234 18.9381 9.40234 19.0718C9.40234 19.2054 9.42867 19.3377 9.47982 19.4612C9.53096 19.5847 9.60593 19.6969 9.70044 19.7914C9.79494 19.8859 9.90714 19.9609 10.0306 20.012C10.1541 20.0632 10.2864 20.0895 10.4201 20.0895C10.5537 20.0895 10.6861 20.0632 10.8096 20.012C10.933 19.9609 11.0452 19.8859 11.1398 19.7914C11.2343 19.6969 11.3092 19.5847 11.3604 19.4612C11.4115 19.3377 11.4378 19.2054 11.4378 19.0718C11.4378 18.9381 11.4115 18.8058 11.3604 18.6823C11.3092 18.5588 11.2343 18.4466 11.1398 18.3521C11.0452 18.2576 10.933 18.1826 10.8096 18.1315C10.6861 18.0803 10.5537 18.054 10.4201 18.054Z" fill="#36404D"/>
<path d="M23.2501 28.125C21.1606 28.125 19.2316 27.3757 18.3053 26.9505C19.5046 26.1105 22.1251 23.844 22.1251 20.0903V14.9122C22.1251 12.0817 19.0703 10.254 18.9398 10.1783L18.6053 9.981L18.4201 10.3222C18.4006 10.3582 16.3988 13.9373 11.3858 14.6295C8.97234 14.9625 6.37509 16.677 6.37509 19.653L7.12509 19.7153L6.37509 19.698V20.0895C6.37509 23.8935 9.24909 26.247 10.5916 27.1388C9.58734 27.5093 7.66584 28.125 6.00009 28.125C3.10209 28.125 1.67634 26.7855 1.22559 26.2552C1.83084 25.4797 3.66909 22.9695 3.66909 21.108C3.66909 20.1022 3.43659 18.9435 3.19059 17.7172C2.91309 16.329 2.62509 14.895 2.62509 13.5C2.62509 5.754 8.14059 1.125 13.4731 1.125C17.4781 1.125 19.1603 3.912 19.1761 3.93975L19.2856 4.125H19.5001C22.9538 4.125 26.6251 6.885 26.6251 12C26.6251 13.6643 26.2606 15.4117 25.9073 17.1022C25.6013 18.5685 25.3126 19.953 25.3126 21.108C25.3126 23.424 27.6451 25.488 28.6216 26.2507C27.7786 26.8395 25.6621 28.125 23.2501 28.125Z" fill="#FFC49C"/>
<path d="M13.473 1.5C17.229 1.5 18.7905 4.02525 18.8527 4.1295L19.0702 4.5H19.5C22.7722 4.5 26.25 7.12875 26.25 12C26.25 13.6252 25.8892 15.354 25.5405 17.025C25.2308 18.5107 24.9375 19.914 24.9375 21.1073C24.9375 23.298 26.8462 25.2472 27.9907 26.2192C27.0157 26.835 25.2323 27.75 23.25 27.75C21.5985 27.75 20.0452 27.2625 19.0455 26.8605C20.4082 25.7647 22.5 23.523 22.5 20.0895V14.9115C22.5 11.8687 19.2675 9.9345 19.1302 9.8535L18.4598 9.45975L18.0907 10.1445C18.072 10.179 16.1813 13.5885 11.3355 14.2575C8.76525 14.6123 6 16.452 6 19.653V19.698V20.0895C6 23.5612 8.27625 25.872 9.786 27.0232C8.75325 27.363 7.2915 27.75 6 27.75C3.606 27.75 2.28375 26.7908 1.7175 26.2327C2.484 25.2173 4.04475 22.9275 4.04475 21.1073C4.04475 20.0648 3.8085 18.888 3.55875 17.643C3.28425 16.2735 3 14.8582 3 13.5C3 5.98875 8.325 1.5 13.473 1.5ZM13.473 0.75C7.8975 0.75 2.25 5.60325 2.25 13.5C2.25 16.1895 3.29475 19.0365 3.29475 21.1073C3.29475 23.178 0.75 26.25 0.75 26.25C0.75 26.25 2.19375 28.5 6 28.5C8.47725 28.5 11.4345 27.2107 11.4345 27.2107C11.4345 27.2107 6.75 24.7762 6.75 20.0895C6.75 19.7565 6.75 19.698 6.75 19.698V19.7153C6.75 19.7153 6.75 19.7025 6.75 19.653C6.75 16.8945 9.1815 15.312 11.4375 15C16.716 14.271 18.75 10.5 18.75 10.5C18.75 10.5 21.75 12.2625 21.75 14.9115C21.75 16.0568 21.75 18.2092 21.75 20.0895C21.75 24.687 17.5448 26.991 17.5448 26.991C17.5448 26.991 20.2087 28.5 23.25 28.5C26.544 28.5 29.25 26.25 29.25 26.25C29.25 26.25 25.6875 23.8095 25.6875 21.1073C25.6875 18.7065 27 15.1823 27 12C27 6.603 23.0445 3.75 19.5 3.75C19.5 3.75 17.739 0.75 13.473 0.75Z" fill="#A16A4A"/>
</svg>
