<svg width="74" height="15" viewBox="0 0 74 15" fill="none" xmlns="http://www.w3.org/2000/svg">
<path d="M14.904 0.500009V14H10.584V7.49301L7.695 11.975H7.209L4.347 7.52001V14H0V0.500009H4.347L7.452 5.36001L10.584 0.500009H14.904Z" fill="#050C26"/>
<path d="M21.4774 8.89701C21.9274 9.99501 22.9354 10.544 24.5014 10.544C25.4734 10.544 26.2924 10.229 26.9584 9.59901L30.1984 11.867C28.8664 13.541 26.9314 14.378 24.3934 14.378C22.1074 14.378 20.2714 13.712 18.8854 12.38C17.5174 11.03 16.8334 9.32901 16.8334 7.27701C16.8334 5.24301 17.5084 3.54201 18.8584 2.17401C20.2084 0.806009 21.9274 0.122009 24.0154 0.122009C26.0314 0.122009 27.6964 0.797009 29.0104 2.14701C30.3244 3.49701 30.9814 5.18901 30.9814 7.22301C30.9814 7.81701 30.9184 8.37501 30.7924 8.89701H21.4774ZM21.4234 5.79201H26.6074C26.2474 4.53201 25.4014 3.90201 24.0694 3.90201C22.6834 3.90201 21.8014 4.53201 21.4234 5.79201Z" fill="#050C26"/>
<path d="M40.5981 0.500009H45.1071V14H40.5981V10.22C39.6621 10.454 38.7621 10.571 37.8981 10.571C36.2781 10.571 34.9551 10.139 33.9291 9.27501C32.9211 8.39301 32.4171 7.15101 32.4171 5.54901V0.500009H36.9261V4.76601C36.9261 5.86401 37.5831 6.41301 38.8971 6.41301C39.4911 6.41301 40.0581 6.32301 40.5981 6.14301V0.500009Z" fill="#050C26"/>
<path d="M58.8762 0.500009V4.79301H55.0152V14H50.5332V4.79301H46.6182V0.500009H58.8762Z" fill="#050C26"/>
<path d="M69.49 0.500009H73.972V14H69.49V12.758C68.572 13.838 67.294 14.378 65.656 14.378C63.856 14.378 62.344 13.703 61.12 12.353C59.914 10.985 59.311 9.28401 59.311 7.25001C59.311 5.21601 59.914 3.52401 61.12 2.17401C62.344 0.806009 63.856 0.122009 65.656 0.122009C67.294 0.122009 68.572 0.662009 69.49 1.74201V0.500009ZM64.603 9.38301C65.125 9.92301 65.809 10.193 66.655 10.193C67.501 10.193 68.185 9.92301 68.707 9.38301C69.229 8.84301 69.49 8.13201 69.49 7.25001C69.49 6.36801 69.229 5.65701 68.707 5.11701C68.185 4.57701 67.501 4.30701 66.655 4.30701C65.809 4.30701 65.125 4.57701 64.603 5.11701C64.081 5.65701 63.82 6.36801 63.82 7.25001C63.82 8.13201 64.081 8.84301 64.603 9.38301Z" fill="#050C26"/>
</svg>
