<svg width="68" height="68" viewBox="0 0 68 68" fill="none" xmlns="http://www.w3.org/2000/svg">
<circle cx="34" cy="34" r="33" stroke="#FE9519" stroke-width="2"/>
<path d="M33.9997 24.9998C36.4849 24.9998 38.4996 22.9852 38.4996 20.4999C38.4996 18.0147 36.4849 16 33.9997 16C31.5144 16 29.4998 18.0147 29.4998 20.4999C29.4998 22.9852 31.5144 24.9998 33.9997 24.9998Z" fill="#FE9519"/>
<path d="M42.7458 48.7446L37.2041 50.8229L39.96 51.8564C41.146 52.2967 42.4257 51.6865 42.857 50.5392C43.0865 49.927 43.0186 49.2858 42.7458 48.7446Z" fill="#FE9519"/>
<path d="M23.5402 40.8923C22.379 40.4616 21.0804 41.0461 20.6432 42.2094C20.2071 43.3729 20.797 44.6692 21.9604 45.1064L24.3878 46.0166L30.7962 43.6131L23.5402 40.8923Z" fill="#FE9519"/>
<path d="M47.3568 42.2095C46.9196 41.046 45.621 40.4616 44.4598 40.8923L26.4602 47.6422C25.2968 48.0795 24.7068 49.3757 25.143 50.5392C25.5742 51.6862 26.8536 52.2969 28.04 51.8564L46.0396 45.1065C47.2031 44.6693 47.7931 43.373 47.3568 42.2095Z" fill="#FE9519"/>
<path d="M49.7497 33.9996H44.3907L39.5126 26.2435C39.1096 25.4382 38.2898 24.9794 37.4448 24.9999L33.9997 24.9998L30.555 24.9999C29.7102 24.9794 28.8914 25.4383 28.4875 26.2435L23.6094 33.9996H18.2504C17.0079 33.9996 16.0005 35.0071 16.0005 36.2496C16.0005 37.4921 17.0079 38.4995 18.2504 38.4995H25.0003C25.8528 38.4995 26.6317 38.0183 27.0129 37.2559L29.5001 32.2814L28.5001 40.7245L33.9999 42.4118L39.5 40.724L38.5 32.2814L40.9872 37.2559C41.3684 38.0183 42.1473 38.4995 42.9998 38.4995H49.7496C50.9921 38.4995 51.9996 37.4921 51.9996 36.2496C51.9996 35.0071 50.9922 33.9996 49.7497 33.9996Z" fill="#FE9519"/>
</svg>
