<svg width="68" height="68" viewBox="0 0 68 68" fill="none" xmlns="http://www.w3.org/2000/svg">
<circle cx="34" cy="34" r="33" stroke="#FE9519" stroke-width="2"/>
<path d="M31.141 33.8149C31.4091 34.9031 31.4966 36.4495 30.2547 37.3777C28.6921 38.5496 28.0164 39.3065 27.7245 40.0372C27.5682 39.5411 27.4938 39.0228 27.5045 38.5027C27.4662 37.3131 27.0387 36.1689 26.2876 35.2457C26.5296 35.2722 26.7729 35.2864 27.0164 35.2882C28.5174 35.2727 29.9698 34.7539 31.141 33.8149Z" fill="#FE9519"/>
<path d="M44.3804 26.0019C44.3804 25.6567 44.1005 25.3768 43.7553 25.3768C43.4101 25.3768 43.1303 25.6567 43.1303 26.0019C43.1303 27.0375 43.9698 27.877 45.0054 27.877H45.6504C45.5782 28.4196 45.349 28.9292 44.991 29.3433C44.8155 29.5247 44.6086 29.673 44.3804 29.7808V29.7521C44.3804 29.4069 44.1005 29.127 43.7553 29.127C43.4101 29.127 43.1303 29.4069 43.1303 29.7521V30.0721C42.7495 30.0886 42.3679 30.0689 41.9908 30.0134L41.152 29.894C39.536 29.6016 37.8972 29.4529 36.2549 29.4496V29.127C36.2549 28.7819 35.975 28.502 35.6298 28.502C35.2846 28.502 35.0048 28.7819 35.0048 29.127V29.6021C33.9951 29.8211 33.071 30.3293 32.3453 31.0647C31.6275 31.8033 30.844 32.4751 30.0045 33.0717V32.8773C30.0045 31.8417 29.165 31.0022 28.1294 31.0022H26.2543C25.9091 31.0022 25.6292 31.282 25.6292 31.6272C25.6292 31.9724 25.9091 32.2522 26.2543 32.2522H28.1294C28.4746 32.2522 28.7544 32.5321 28.7544 32.8773V33.7261C27.6188 34.1294 26.382 34.1479 25.2348 33.7786C24.5103 33.4684 23.8915 32.9541 23.4541 32.2985C23.1989 31.892 22.9925 31.4569 22.8391 31.0022H23.7541C24.0993 31.0022 24.3792 30.7223 24.3792 30.3771C24.3792 30.0319 24.0993 29.7521 23.7541 29.7521H22.5565C22.5328 29.5427 22.509 29.3333 22.5059 29.1158C22.5028 28.9095 22.5128 28.7064 22.5172 28.502H23.7541C24.0993 28.502 24.3792 28.2222 24.3792 27.877C24.3792 27.5318 24.0993 27.2519 23.7541 27.2519H22.5897C22.6623 26.4527 22.8053 25.6615 23.0172 24.8874C23.2777 23.9806 23.7438 23.146 24.3792 22.4485V22.8767C24.3792 23.9123 25.2187 24.7518 26.2543 24.7518C26.5995 24.7518 26.8793 24.472 26.8793 24.1268C26.8793 23.7816 26.5995 23.5017 26.2543 23.5017C25.9091 23.5017 25.6292 23.2219 25.6292 22.8767V21.3141C26.0543 20.9872 26.4693 20.6972 26.8793 20.4315V21.6266C26.8793 21.9718 27.1591 22.2516 27.5043 22.2516C27.8495 22.2516 28.1294 21.9718 28.1294 21.6266V19.7515C28.1294 19.7371 28.1219 19.7252 28.1213 19.7109C29.1035 19.1956 30.161 18.8386 31.2546 18.6533V20.3765H30.6295C30.2843 20.3765 30.0045 20.6564 30.0045 21.0016C30.0045 21.3468 30.2843 21.6266 30.6295 21.6266H31.8796C32.2248 21.6266 32.5046 21.3468 32.5046 21.0016V18.517C32.8747 18.5002 33.2503 18.4995 33.6366 18.517C33.6753 18.517 33.7153 18.5245 33.7547 18.527V19.1265C33.7547 19.4717 34.0346 19.7515 34.3798 19.7515C34.725 19.7515 35.0048 19.4717 35.0048 19.1265V18.6314C35.4217 18.6771 35.8386 18.7352 36.2549 18.7971V19.1265C36.2549 19.4717 36.5347 19.7515 36.8799 19.7515C37.2251 19.7515 37.5049 19.4717 37.5049 19.1265V19.0014C38.055 19.0996 38.6 19.2027 39.13 19.3102C39.6366 19.4117 40.1373 19.5402 40.6301 19.6952V21.0016C40.6301 21.3468 40.3503 21.6266 40.0051 21.6266C39.6599 21.6266 39.3801 21.9064 39.3801 22.2516C39.3801 22.5968 39.6599 22.8767 40.0051 22.8767C41.0407 22.8767 41.8802 22.0372 41.8802 21.0016V20.1846C42.4507 20.4437 42.9697 20.8036 43.4122 21.2472C43.8698 21.7377 44.2621 22.2854 44.5791 22.8767H43.1303C42.7851 22.8767 42.5052 23.1565 42.5052 23.5017C42.5052 23.8469 42.7851 24.1268 43.1303 24.1268H45.1485C45.2917 24.5499 45.5235 25.51 45.6067 25.865C45.6559 26.1166 45.6891 26.3711 45.7061 26.6269H45.0054C44.6602 26.6269 44.3804 26.3471 44.3804 26.0019ZM27.5043 28.502C27.1591 28.502 26.8793 28.2222 26.8793 27.877V26.6269C26.8793 26.2817 26.5995 26.0019 26.2543 26.0019C25.9091 26.0019 25.6292 26.2817 25.6292 26.6269V27.877C25.6292 28.9126 26.4687 29.7521 27.5043 29.7521H28.1294C28.4746 29.7521 28.7544 29.4722 28.7544 29.127C28.7544 28.7819 28.4746 28.502 28.1294 28.502H27.5043ZM29.3795 22.8767H28.7544C28.4092 22.8767 28.1294 23.1565 28.1294 23.5017C28.1294 23.8469 28.4092 24.1268 28.7544 24.1268H29.3795C29.7247 24.1268 30.0045 24.4066 30.0045 24.7518C30.0045 25.097 29.7247 25.3768 29.3795 25.3768H28.7544C28.4092 25.3768 28.1294 25.6567 28.1294 26.0019C28.1294 26.3471 28.4092 26.6269 28.7544 26.6269H29.3795C30.4151 26.6269 31.2546 25.7874 31.2546 24.7518C31.2546 23.7162 30.4151 22.8767 29.3795 22.8767ZM32.5046 26.6269V27.2519C32.5046 27.5971 32.2248 27.877 31.8796 27.877H31.2546C30.9094 27.877 30.6295 28.1568 30.6295 28.502C30.6295 28.8472 30.9094 29.127 31.2546 29.127H31.8796C32.9152 29.127 33.7547 28.2875 33.7547 27.2519V26.6269C33.7547 26.2817 33.4749 26.0019 33.1297 26.0019C32.7845 26.0019 32.5046 26.2817 32.5046 26.6269ZM38.13 22.8767C38.13 21.8411 37.2905 21.0016 36.2549 21.0016H35.0048C33.9692 21.0016 33.1297 21.8411 33.1297 22.8767V23.5017C33.1297 23.8469 33.4095 24.1268 33.7547 24.1268C34.0999 24.1268 34.3798 23.8469 34.3798 23.5017V22.8767C34.3798 22.5315 34.6596 22.2516 35.0048 22.2516H36.2549C36.6001 22.2516 36.8799 22.5315 36.8799 22.8767V23.5017C36.8799 23.8469 37.1597 24.1268 37.5049 24.1268C37.8501 24.1268 38.13 23.8469 38.13 23.5017V22.8767ZM37.5049 26.0019H36.8799C36.5347 26.0019 36.2549 25.722 36.2549 25.3768V24.1268C36.2549 23.7816 35.975 23.5017 35.6298 23.5017C35.2846 23.5017 35.0048 23.7816 35.0048 24.1268V25.3768C35.0048 26.4124 35.8443 27.2519 36.8799 27.2519H37.5049C37.8501 27.2519 38.13 26.9721 38.13 26.6269C38.13 26.2817 37.8501 26.0019 37.5049 26.0019ZM41.8802 26.0019C41.8802 24.9663 41.0407 24.1268 40.0051 24.1268H39.3801C39.0349 24.1268 38.755 24.4066 38.755 24.7518C38.755 25.097 39.0349 25.3768 39.3801 25.3768H40.0051C40.3503 25.3768 40.6301 25.6567 40.6301 26.0019V26.6269C40.6301 26.9721 40.3503 27.2519 40.0051 27.2519H39.3801C39.0349 27.2519 38.755 27.5318 38.755 27.877C38.755 28.2222 39.0349 28.502 39.3801 28.502H40.0051C41.0407 28.502 41.8802 27.6625 41.8802 26.6269V26.0019Z" fill="#FE9519"/>
<path d="M50.4501 37.3869C49.9145 37.6594 49.1825 38.0332 49.0369 38.8001C48.9464 39.2721 49.0051 39.7606 49.205 40.1977C49.3113 40.4208 49.4207 40.6165 49.5176 40.7858C49.5507 40.844 49.5863 40.9109 49.6182 40.9665C49.3619 41.1721 49.0044 41.4396 48.8544 41.5509C48.7189 41.6513 48.6297 41.8022 48.6071 41.9693C48.5845 42.1365 48.6304 42.3057 48.7344 42.4384C48.8267 42.5593 48.9068 42.6888 48.9738 42.8253L48.84 42.9022C48.2878 43.1401 47.8669 43.6071 47.6875 44.181C47.5978 44.6244 47.618 45.083 47.7462 45.5168C47.775 45.6468 47.8043 45.7761 47.8212 45.9055C47.8571 46.2798 47.8056 46.6572 47.6706 47.0081C47.5361 47.5891 46.9661 47.9597 46.3805 47.8469C44.5627 47.4034 42.7702 46.8622 41.0108 46.2255C40.4126 46.0212 39.8657 45.8299 39.4201 45.6736C38.9282 45.5011 38.5575 45.3717 38.3713 45.313C35.7742 44.5004 35.2461 43.5591 35.2623 42.9153C35.2664 42.7496 35.2043 42.589 35.0899 42.4689C34.9755 42.3489 34.8181 42.2792 34.6523 42.2753C34.3119 42.2796 34.0326 42.5461 34.0123 42.886C33.976 44.4486 35.3161 45.6643 37.9956 46.5056C38.1744 46.5618 38.5325 46.6874 39.0063 46.8531C39.1469 46.9031 39.2976 46.955 39.457 47.0106C38.4228 48.1532 37.6674 49.5198 37.25 51.0033L23.0754 50.9646L23.1204 50.8964C23.2991 50.6387 23.4601 50.3691 23.6023 50.0895C23.9117 49.4556 24.1715 48.7986 24.3792 48.1244C24.7586 46.8459 25.0206 45.5353 25.1617 44.2092C25.41 42.1189 25.095 40.0002 24.2492 38.0726C23.7494 37.0312 23.1324 36.0502 22.4103 35.1486C22.0466 34.6586 21.6703 34.1517 21.3478 33.6379C20.483 32.3001 20.0169 30.7437 20.0039 29.1508C19.9686 27.4812 20.173 25.8151 20.6108 24.2036C21.1641 22.3069 22.3252 20.6445 23.9154 19.4721C27.1919 16.9044 30.2258 15.8344 33.7623 16.0206C35.7346 16.158 37.6943 16.4392 39.6257 16.8619C42.1834 17.3763 44.016 18.2514 45.2267 19.5264C46.2157 20.5819 46.9786 21.8283 47.4687 23.1892C47.6832 23.8084 47.8578 24.4408 47.9912 25.0824L48.0419 25.3005C48.1908 25.8651 48.394 26.414 48.6488 26.9394C48.7681 27.2057 48.8875 27.4719 48.99 27.7432C49.0535 27.8805 49.0876 28.0295 49.09 28.1807C49.0632 28.3732 48.8244 28.592 48.5719 28.8233C48.0541 29.1863 47.7199 29.7567 47.6562 30.3858C47.6665 30.6841 47.7507 30.9751 47.9012 31.2328C48.6822 32.8795 49.6393 34.4368 50.7558 35.8774C51.2364 36.4643 51.3346 36.69 51.3364 36.7869C51.2213 36.8948 51.0985 36.9942 50.9689 37.0844C50.8047 37.1994 50.6312 37.3006 50.4501 37.3869ZM46.8287 25.6006C46.7905 25.4374 46.4886 24.1411 46.2968 23.6204C46.258 23.5161 46.2099 23.4192 46.168 23.3167C46.156 23.2784 46.1403 23.2413 46.1211 23.206C45.6958 22.1647 45.0848 21.2093 44.3179 20.3865C43.5259 19.6092 42.5657 19.0247 41.5115 18.6783C41.4977 18.672 41.4833 18.6689 41.469 18.6633C40.7879 18.4199 40.0897 18.2275 39.3801 18.0876C37.7615 17.744 36.1249 17.4921 34.4779 17.3332C34.4458 17.3238 34.413 17.3174 34.3798 17.3138C34.3654 17.3138 34.3535 17.3207 34.3392 17.3219C34.126 17.3044 33.9129 17.2801 33.6997 17.2688C33.4616 17.2576 33.2291 17.2513 32.9991 17.2513C30.0758 17.2513 27.5125 18.2407 24.6861 20.4584C23.3071 21.4696 22.2984 22.9058 21.8153 24.5461C21.519 25.6245 21.3413 26.7319 21.2853 27.8488C21.2853 27.8588 21.2796 27.8669 21.2796 27.8769C21.2793 27.8807 21.2793 27.8845 21.2796 27.8882C21.2571 28.2988 21.2478 28.7145 21.254 29.1339C21.2631 29.5513 21.3072 29.9671 21.3859 30.3771C21.3866 30.4659 21.4064 30.5535 21.444 30.634C21.6228 31.4616 21.9456 32.2514 22.3978 32.9672C22.8182 33.5797 23.348 34.1094 23.9604 34.5298L23.9792 34.5467C25.1105 35.6418 26.2543 36.9681 26.2543 38.5026C26.2543 41.3077 27.6863 42.1053 27.85 42.1903C28.0443 42.2874 28.2751 42.2767 28.4595 42.1619C28.644 42.0472 28.7556 41.845 28.7545 41.6278C28.7545 40.5221 28.7545 40.0652 31.0046 38.3776C33.0935 36.815 32.5834 34.1761 32.1922 32.9397C32.5472 32.6166 32.8884 32.2841 33.2216 31.9584C34.9536 30.2646 36.9662 30.554 40.9764 31.1309L41.8177 31.2521C43.6253 31.5084 45.0017 31.1559 45.9017 30.2021C47.3181 28.697 46.9693 26.3 46.8287 25.6006Z" fill="#FE9519"/>
</svg>
