<svg width="151" height="189" viewBox="0 0 151 189" fill="none" xmlns="http://www.w3.org/2000/svg">
<path d="M11.4859 186V173.22H16.8499C17.4259 173.22 17.9539 173.34 18.4339 173.58C18.9259 173.82 19.3459 174.138 19.6939 174.534C20.0539 174.93 20.3299 175.374 20.5219 175.866C20.7139 176.358 20.8099 176.862 20.8099 177.378C20.8099 178.098 20.6479 178.776 20.3239 179.412C19.9999 180.048 19.5499 180.564 18.9739 180.96C18.3979 181.356 17.7259 181.554 16.9579 181.554H13.5019V186H11.4859ZM13.5019 179.772H16.8319C17.3959 179.772 17.8579 179.544 18.2179 179.088C18.5779 178.632 18.7579 178.062 18.7579 177.378C18.7579 176.91 18.6619 176.502 18.4699 176.154C18.2779 175.794 18.0259 175.512 17.7139 175.308C17.4139 175.104 17.0839 175.002 16.7239 175.002H13.5019V179.772ZM31.4667 184.218V186H22.7007V173.22H31.3047V175.002H24.7167V178.638H30.4227V180.312H24.7167V184.218H31.4667ZM33.5644 186V173.22H41.1784V175.002H35.5804V186H33.5644ZM43.1638 186V173.22H45.1798V183.156L52.0018 173.22H53.8918V186H51.8758V176.226L45.1258 186H43.1638ZM56.045 179.52C56.045 178.74 56.183 177.972 56.459 177.216C56.735 176.46 57.137 175.776 57.665 175.164C58.205 174.552 58.853 174.066 59.609 173.706C60.377 173.334 61.253 173.148 62.237 173.148C63.389 173.148 64.385 173.406 65.225 173.922C66.065 174.438 66.689 175.11 67.097 175.938L65.513 177C65.273 176.484 64.967 176.082 64.595 175.794C64.235 175.494 63.839 175.284 63.407 175.164C62.987 175.032 62.573 174.966 62.165 174.966C61.493 174.966 60.905 175.104 60.401 175.38C59.897 175.644 59.471 175.998 59.123 176.442C58.787 176.886 58.529 177.384 58.349 177.936C58.181 178.488 58.097 179.04 58.097 179.592C58.097 180.42 58.271 181.194 58.619 181.914C58.979 182.622 59.465 183.198 60.077 183.642C60.701 184.074 61.415 184.29 62.219 184.29C62.627 184.29 63.053 184.218 63.497 184.074C63.941 183.93 64.349 183.708 64.721 183.408C65.093 183.096 65.393 182.688 65.621 182.184L67.295 183.138C67.031 183.774 66.617 184.314 66.053 184.758C65.501 185.202 64.877 185.538 64.181 185.766C63.497 185.994 62.819 186.108 62.147 186.108C61.247 186.108 60.425 185.922 59.681 185.55C58.937 185.166 58.295 184.662 57.755 184.038C57.215 183.402 56.795 182.694 56.495 181.914C56.195 181.122 56.045 180.324 56.045 179.52ZM78.5377 175.002H74.2897V186H72.2557V175.002H67.9897V173.22H78.5377V175.002ZM80.2515 186V173.22H85.6155C86.1915 173.22 86.7195 173.34 87.1995 173.58C87.6915 173.82 88.1115 174.138 88.4595 174.534C88.8195 174.93 89.0955 175.374 89.2875 175.866C89.4795 176.358 89.5755 176.862 89.5755 177.378C89.5755 178.098 89.4135 178.776 89.0895 179.412C88.7655 180.048 88.3155 180.564 87.7395 180.96C87.1635 181.356 86.4915 181.554 85.7235 181.554H82.2675V186H80.2515ZM82.2675 179.772H85.5975C86.1615 179.772 86.6235 179.544 86.9835 179.088C87.3435 178.632 87.5235 178.062 87.5235 177.378C87.5235 176.91 87.4275 176.502 87.2355 176.154C87.0435 175.794 86.7915 175.512 86.4795 175.308C86.1795 175.104 85.8495 175.002 85.4895 175.002H82.2675V179.772ZM94.2423 173.22H96.1503L101.118 186H98.9943L97.6443 182.526H92.7123L91.3803 186H89.2383L94.2423 173.22ZM97.2483 181.032L95.1963 175.434L93.0723 181.032H97.2483ZM112.293 188.43V186H102.699V173.22H104.715V184.218H110.421V173.22H112.455V184.218H114.075V188.43H112.293ZM116.218 186V173.22H118.234V183.156L125.056 173.22H126.946V186H124.93V176.226L118.18 186H116.218ZM129.55 186L132.79 180.762C131.95 180.522 131.296 180.072 130.828 179.412C130.36 178.752 130.126 177.972 130.126 177.072C130.126 176.34 130.3 175.686 130.648 175.11C131.008 174.534 131.506 174.078 132.142 173.742C132.778 173.394 133.516 173.22 134.356 173.22H138.982V186H136.966V181.014H134.86L131.872 186H129.55ZM134.572 179.268H136.966V174.966H134.626C133.942 174.966 133.366 175.152 132.898 175.524C132.43 175.884 132.196 176.4 132.196 177.072C132.196 177.744 132.406 178.278 132.826 178.674C133.258 179.07 133.84 179.268 134.572 179.268Z" fill="#727272"/>
<rect x="0.545898" width="150" height="150" rx="54" fill="#473EAE"/>
<circle cx="75.5459" cy="75" r="54" stroke="white" stroke-width="12"/>
<line x1="44.5459" y1="73" x2="99.5459" y2="73" stroke="white" stroke-width="12" stroke-linecap="round"/>
<path d="M83.5459 51L109.546 73.4462L83.5459 96" stroke="white" stroke-width="12" stroke-linecap="round" stroke-linejoin="round"/>
</svg>
