<svg width="68" height="68" viewBox="0 0 68 68" fill="none" xmlns="http://www.w3.org/2000/svg">
<circle cx="34" cy="34" r="33" stroke="#FE9519" stroke-width="2"/>
<path d="M23.8682 29.0977C24.5658 29.2614 25.2471 29.4887 25.9032 29.7765C26.1117 29.8606 26.3186 29.9414 26.5226 30.0217C26.9075 30.168 27.2925 30.3249 27.682 30.481C28.469 30.7995 29.2825 31.1283 30.0844 31.3654C31.2002 31.6469 32.3493 31.7751 33.4999 31.7466C34.6505 31.7753 35.7995 31.6469 36.9154 31.3654C37.7178 31.1283 38.5312 30.7995 39.3183 30.481C39.7032 30.3249 40.0917 30.168 40.4777 30.0217C40.6819 29.9442 40.8886 29.8606 41.097 29.7765C41.7532 29.4885 42.4344 29.2616 43.1321 29.0982C40.7048 24.3217 40.7544 20.569 40.9105 19.0967H26.0893C26.2454 20.569 26.2977 24.3217 23.8682 29.0977ZM32.3999 26.2467C32.7035 26.2467 32.9498 26.4929 32.9498 26.7966C32.9498 27.1004 33.1962 27.3467 33.4999 27.3467C33.8035 27.3467 34.05 27.1004 34.05 26.7966C34.05 26.4929 34.2962 26.2467 34.5999 26.2467C34.9037 26.2467 35.15 26.4929 35.15 26.7966C35.15 27.7077 34.411 28.4467 33.4999 28.4467C32.5887 28.4467 31.8498 27.7077 31.8498 26.7966C31.8498 26.4929 32.096 26.2467 32.3999 26.2467Z" fill="#FE9519"/>
<path d="M43.6882 30.1318C42.9366 30.2595 42.2045 30.4828 41.5096 30.7963C41.2936 30.8836 41.0796 30.97 40.8678 31.0503C40.4894 31.1946 40.111 31.3474 39.7311 31.5007C38.9196 31.8308 38.081 32.1684 37.2275 32.4204C36.0122 32.7331 34.7594 32.8766 33.5051 32.8467H33.495C32.2404 32.8766 30.9876 32.7331 29.7721 32.4204C28.9191 32.1684 28.0804 31.8293 27.269 31.5007C26.8891 31.3474 26.5106 31.1946 26.1322 31.0503C25.9205 30.97 25.7065 30.8854 25.491 30.7963C24.7956 30.4831 24.0632 30.2597 23.3114 30.1318C23.2651 30.2132 23.225 30.292 23.177 30.3738C22.4959 31.6326 22.1029 33.0272 22.0264 34.4565C23.7215 34.3631 28.1459 34.274 30.4828 35.6753C31.0959 36.0411 31.6493 36.3569 32.1266 36.6137C32.2301 36.6685 32.3301 36.7186 32.422 36.7642L32.5138 36.81C33.1342 37.1207 33.8648 37.1207 34.485 36.81C34.5456 36.7808 34.595 36.7549 34.6473 36.728L34.7755 36.662L34.815 36.6406C35.2863 36.3918 35.8546 36.0696 36.52 35.6735C38.7975 34.3079 43.0222 34.3482 44.9747 34.4527C44.8974 33.0239 44.5036 31.6299 43.8223 30.3718C43.7745 30.292 43.7345 30.2132 43.6882 30.1318Z" fill="#FE9519"/>
<path d="M31.3417 37.4359C30.9109 37.1992 30.4414 36.9314 29.9177 36.6192C28.0534 35.5008 24.2526 35.4172 21.9703 35.5597C21.8878 41.3605 24.6142 48.3169 25.267 49.8965H32.9498V42.1966C32.952 42.181 32.9553 42.1657 32.9593 42.1503C32.5595 40.5521 32.0228 38.9911 31.3548 37.4848C31.3468 37.4666 31.3478 37.4518 31.3417 37.4359Z" fill="#FE9519"/>
<path d="M41.7329 49.8964C42.3857 48.3163 45.1111 41.3579 45.0285 35.5581C43.4061 35.4677 39.1645 35.3693 37.0827 36.6183C36.5451 36.9393 36.0703 37.212 35.6581 37.4363C35.6521 37.4522 35.6531 37.4688 35.6456 37.4846C34.9774 38.991 34.4406 40.552 34.0405 42.1502C34.0446 42.1655 34.0478 42.1809 34.0501 42.1965V49.8964H41.7329Z" fill="#FE9519"/>
<path d="M34.2041 38.0662C33.7403 38.1706 33.2592 38.1706 32.7957 38.0662C32.994 38.5695 33.241 39.2437 33.5001 40.0589C33.7587 39.2427 34.0057 38.5667 34.2041 38.0662Z" fill="#FE9519"/>
<path d="M19.7501 25.1465C19.7496 25.3615 19.874 25.5569 20.0691 25.647C20.1416 25.6797 20.2204 25.6966 20.2999 25.6966C20.4286 25.6968 20.553 25.652 20.6519 25.5702L23.9521 22.8201C24.078 22.7156 24.151 22.5603 24.151 22.3966C24.151 22.2327 24.078 22.0776 23.9521 21.9732L20.6519 19.2231C20.488 19.0864 20.2597 19.0572 20.0663 19.1478C19.8729 19.2387 19.7496 19.4331 19.7501 19.6466V20.7465H17.5501C17.2462 20.7465 17 20.9928 17 21.2967V23.4966C17 23.8003 17.2462 24.0465 17.5501 24.0465H19.7501V25.1465Z" fill="#FE9519"/>
<path d="M49.4498 20.7465H47.2498V19.6466C47.2503 19.4331 47.127 19.2387 46.9336 19.1478C46.7402 19.0572 46.5119 19.0864 46.348 19.2231L43.0478 21.9732C42.9219 22.0776 42.8489 22.2327 42.8489 22.3966C42.8489 22.5603 42.9219 22.7156 43.0478 22.8201L46.348 25.5702C46.4469 25.652 46.5713 25.6968 46.7 25.6966C46.7795 25.6966 46.8583 25.6797 46.9308 25.647C47.1259 25.5569 47.2503 25.3615 47.2498 25.1465V24.0465H49.4498C49.7537 24.0465 49.9999 23.8003 49.9999 23.4966V21.2967C49.9999 20.9928 49.7537 20.7465 49.4498 20.7465Z" fill="#FE9519"/>
</svg>
