<svg width="133" height="21" viewBox="0 0 133 21" fill="none" xmlns="http://www.w3.org/2000/svg">
<path d="M10.4823 0L12.8357 6.91287H20.4516L14.2902 11.1853L16.6437 18.0981L10.4823 13.8257L4.32096 18.0981L6.67439 11.1853L0.513041 6.91287H8.12889L10.4823 0Z" fill="#FE9519"/>
<path d="M38.4907 0L40.8442 6.91287H48.46L42.2987 11.1853L44.6521 18.0981L38.4907 13.8257L32.3294 18.0981L34.6828 11.1853L28.5215 6.91287H36.1373L38.4907 0Z" fill="#FE9519"/>
<path d="M66.4992 0L68.8526 6.91287H76.4684L70.3071 11.1853L72.6605 18.0981L66.4992 13.8257L60.3378 18.0981L62.6912 11.1853L56.5299 6.91287H64.1457L66.4992 0Z" fill="#FE9519"/>
<path d="M94.5094 0L96.8628 6.91287H104.479L98.3173 11.1853L100.671 18.0981L94.5094 13.8257L88.3481 18.0981L90.7015 11.1853L84.5401 6.91287H92.156L94.5094 0Z" fill="#FE9519"/>
<path d="M122.518 0L124.871 6.91287H132.487L126.326 11.1853L128.679 18.0981L122.518 13.8257L116.356 18.0981L118.71 11.1853L112.549 6.91287H120.164L122.518 0Z" fill="#FE9519"/>
</svg>
