<svg width="105" height="21" viewBox="0 0 105 21" fill="none" xmlns="http://www.w3.org/2000/svg">
<path d="M10.4907 0L12.8442 6.91287H20.46L14.2987 11.1853L16.6521 18.0981L10.4907 13.8257L4.32939 18.0981L6.68281 11.1853L0.521463 6.91287H8.13731L10.4907 0Z" fill="#FE9519"/>
<path d="M38.4992 0L40.8526 6.91287H48.4684L42.3071 11.1853L44.6605 18.0981L38.4992 13.8257L32.3378 18.0981L34.6912 11.1853L28.5299 6.91287H36.1457L38.4992 0Z" fill="#FE9519"/>
<path d="M66.5093 0L68.8627 6.91287H76.4786L70.3172 11.1853L72.6706 18.0981L66.5093 13.8257L60.3479 18.0981L62.7014 11.1853L56.54 6.91287H64.1559L66.5093 0Z" fill="#FE9519"/>
<path d="M94.5178 0L96.8712 6.91287H104.487L98.3257 11.1853L100.679 18.0981L94.5178 13.8257L88.3564 18.0981L90.7099 11.1853L84.5485 6.91287H92.1644L94.5178 0Z" fill="#FE9519"/>
</svg>
