<svg width="24" height="25" viewBox="0 0 24 25" fill="none" xmlns="http://www.w3.org/2000/svg">
<path d="M20.4853 4.01471C18.2188 1.74823 15.2053 0.5 12 0.5C8.79456 0.5 5.78119 1.74823 3.51471 4.01471C1.24823 6.28119 0 9.29456 0 12.5C0 15.7053 1.24823 18.7188 3.51471 20.9853C5.78119 23.2518 8.79456 24.5 12 24.5C15.2053 24.5 18.2188 23.2518 20.4853 20.9853C22.7518 18.7188 24 15.7053 24 12.5C24 9.29456 22.7518 6.28119 20.4853 4.01471ZM6.01593 21.2369C6.51782 18.3471 9.02197 16.2156 12 16.2156C14.9782 16.2156 17.4822 18.3471 17.9841 21.2369C16.2803 22.4075 14.2189 23.0938 12 23.0938C9.78113 23.0938 7.71973 22.4075 6.01593 21.2369ZM8.18445 10.9938C8.18445 8.88971 9.89612 7.17822 12 7.17822C14.1039 7.17822 15.8156 8.88989 15.8156 10.9938C15.8156 13.0977 14.1039 14.8093 12 14.8093C9.89612 14.8093 8.18445 13.0977 8.18445 10.9938ZM19.2021 20.2615C18.8236 18.9162 18.072 17.6956 17.0184 16.7422C16.372 16.1572 15.6363 15.6956 14.8453 15.3702C16.275 14.4376 17.222 12.8243 17.222 10.9938C17.222 8.11444 14.8793 5.77197 12 5.77197C9.12067 5.77197 6.7782 8.11444 6.7782 10.9938C6.7782 12.8243 7.72522 14.4376 9.15472 15.3702C8.36389 15.6956 7.62799 16.157 6.98163 16.742C5.92822 17.6954 5.17639 18.916 4.79791 20.2613C2.71326 18.3253 1.40625 15.5626 1.40625 12.5C1.40625 6.65857 6.15857 1.90625 12 1.90625C17.8414 1.90625 22.5938 6.65857 22.5938 12.5C22.5938 15.5628 21.2867 18.3255 19.2021 20.2615Z" fill="#6F6F6F"/>
</svg>
