<svg width="258" height="232" xmlns="http://www.w3.org/2000/svg">
 <!-- Created with SVG Editor - http://github.com/mzalive/SVG Editor/ -->

 <g>
  <title>background</title>
 </g>
 <g>
  <title>Layer 1</title>
  <g stroke="null" id="svg_5">
   <path stroke="null" id="svg_4" fill="#FE9519" d="m133.814573,64.989781l2.966398,-0.575678l-1.578938,-8.408589l-4.03795,7.512066l2.65049,1.472202zm18.724369,99.708422l-2.966398,0.575678l1.474743,7.854096l4.074796,-6.83906l-2.58314,-1.590715zm97.447178,-159.359359c-0.397755,-1.646747 -2.033472,-2.653914 -3.653182,-2.249552l-26.39738,6.589461c-1.61971,0.404357 -2.610624,2.067131 -2.212869,3.713878c0.397755,1.646747 2.033472,2.653924 3.653484,2.249536l23.464204,-5.857305l5.761554,23.853626c0.397755,1.646901 2.033472,2.653954 3.653182,2.249598c1.620012,-0.404357 2.610624,-2.067223 2.212869,-3.713817l-6.481861,-26.835426zm-202.685576,227.002032l89.164216,-165.878894l-5.300678,-2.944403l-89.164083,165.878587l5.300545,2.94471zm83.547328,-166.775417l18.724671,99.708422l5.933098,-1.151357l-18.724671,-99.708422l-5.933098,1.151357zm24.27421,100.723458l94.514304,-158.627249l-5.166583,-3.181337l-94.514002,158.627157l5.166281,3.181429z"/>
  </g>
  <g stroke="null" id="svg_7">
   <path stroke="null" id="svg_6" fill="#FE9519" d="m92.814573,62.98978l2.966398,-0.575678l-1.578938,-8.408589l-4.03795,7.512066l2.65049,1.472201zm18.72437,99.708422l-2.966399,0.575678l1.474743,7.854096l4.074796,-6.839059l-2.58314,-1.590715zm97.447178,-159.359359c-0.397755,-1.646747 -2.033472,-2.653914 -3.653182,-2.249551l-26.397381,6.58946c-1.61971,0.404357 -2.610623,2.067131 -2.212869,3.713878c0.397755,1.646748 2.033472,2.653924 3.653484,2.249537l23.464204,-5.857306l5.761554,23.853627c0.397754,1.646901 2.033471,2.653954 3.653182,2.249597c1.620012,-0.404356 2.610623,-2.067222 2.212869,-3.713816l-6.481861,-26.835426zm-202.685576,227.002033l89.164216,-165.878894l-5.300678,-2.944403l-89.164083,165.878586l5.300545,2.944711zm83.547328,-166.775417l18.724671,99.708421l5.933099,-1.151356l-18.724672,-99.708422l-5.933098,1.151357zm24.27421,100.723458l94.514303,-158.62725l-5.166582,-3.181337l-94.514002,158.627157l5.166281,3.18143z"/>
  </g>
 </g>
</svg>