<svg width="72" height="76" viewBox="0 0 72 76" fill="none" xmlns="http://www.w3.org/2000/svg">
<path d="M31.0144 21.0152L31.9966 20.8277L31.4738 18.089L30.1368 20.5357L31.0144 21.0152ZM37.2142 53.4905L36.232 53.678L36.7203 56.2361L38.0695 54.0086L37.2142 53.4905ZM69.4798 1.58673C69.3481 1.05038 68.8065 0.722343 68.2702 0.854045L59.5298 3.00025C58.9935 3.13195 58.6654 3.67352 58.7971 4.20987C58.9288 4.74622 59.4704 5.07426 60.0068 4.94255L67.776 3.03481L69.6837 10.804C69.8154 11.3404 70.357 11.6684 70.8933 11.5367C71.4297 11.405 71.7577 10.8634 71.626 10.3271L69.4798 1.58673ZM2.36886 75.5219L31.8919 21.4947L30.1368 20.5357L0.613804 74.5628L2.36886 75.5219ZM30.0321 21.2027L36.232 53.678L38.1965 53.303L31.9966 20.8277L30.0321 21.2027ZM38.0695 54.0086L69.364 2.34328L67.6533 1.30711L36.3589 52.9724L38.0695 54.0086Z" fill="#FE9519"/>
</svg>
